<svg width="20" height="23" viewBox="0 0 20 23" fill="none" xmlns="http://www.w3.org/2000/svg">
<path d="M12.7694 5.35997C15.4495 4.85794 17.5685 5.3834 18.4131 6.888C19.0433 8.01078 18.8631 9.49937 17.9761 11.0906C17.9586 11.1236 17.9349 11.1527 17.9063 11.1762C17.8777 11.1997 17.8448 11.2171 17.8096 11.2273C17.7744 11.2375 17.7375 11.2404 17.7012 11.2358C17.6649 11.2312 17.6298 11.2192 17.5981 11.2005C17.5663 11.1818 17.5385 11.1567 17.5163 11.1268C17.4941 11.0969 17.4779 11.0627 17.4688 11.0263C17.4596 10.9898 17.4575 10.9519 17.4628 10.9146C17.4681 10.8774 17.4805 10.8416 17.4994 10.8093C18.2983 9.37598 18.4538 8.09134 17.9371 7.17071C17.2354 5.92083 15.3454 5.45209 12.868 5.91617C12.7968 5.92836 12.7238 5.91126 12.6647 5.86856C12.6057 5.82587 12.5653 5.761 12.5524 5.68797C12.5395 5.61494 12.555 5.53961 12.5956 5.47824C12.6362 5.41687 12.6986 5.37439 12.7694 5.35997ZM16.5825 13.0247C15.4988 14.2495 14.0909 15.3985 12.4853 16.3519C8.59764 18.6606 4.45884 19.2777 2.41912 17.8472C2.38861 17.8266 2.36239 17.7999 2.34201 17.7688C2.32162 17.7376 2.30747 17.7026 2.30038 17.6658C2.29328 17.629 2.29339 17.5911 2.3007 17.5543C2.308 17.5175 2.32236 17.4826 2.34292 17.4516C2.36349 17.4205 2.38985 17.3941 2.42048 17.3736C2.4511 17.3532 2.48538 17.3393 2.5213 17.3326C2.55722 17.326 2.59407 17.3267 2.6297 17.3349C2.66533 17.3431 2.69902 17.3584 2.72881 17.3801C4.55437 18.6604 8.48583 18.0742 12.2104 15.8624C13.7681 14.9374 15.1314 13.8248 16.1759 12.6441C16.2002 12.6165 16.2295 12.5941 16.2622 12.5781C16.2949 12.5622 16.3303 12.5531 16.3664 12.5512C16.4026 12.5494 16.4387 12.5549 16.4728 12.5675C16.5068 12.5801 16.5381 12.5995 16.5649 12.6245C16.5917 12.6496 16.6134 12.6798 16.6287 12.7135C16.6441 12.7472 16.6529 12.7837 16.6545 12.8208C16.6561 12.858 16.6506 12.8952 16.6382 12.9302C16.6259 12.9651 16.6069 12.9973 16.5825 13.0247Z" fill="#1C1C1F" stroke="#1C1C1F" stroke-width="0.25"/>
<path d="M3.0698 12.6808C1.31493 10.5485 0.70225 8.40385 1.54506 6.90243C2.16516 5.79757 3.47616 5.21424 5.21856 5.19092C5.29077 5.19103 5.36003 5.22036 5.41139 5.27258C5.46274 5.3248 5.49205 5.3957 5.49298 5.46997C5.49392 5.54424 5.4664 5.6159 5.41638 5.66946C5.36636 5.72303 5.29785 5.7542 5.22567 5.75623C3.65867 5.77722 2.52916 6.27977 2.02098 7.18514C1.32101 8.43226 1.86742 10.3448 3.48935 12.3156C3.51315 12.3438 3.53126 12.3767 3.54263 12.4122C3.554 12.4477 3.55841 12.4852 3.5556 12.5225C3.5528 12.5597 3.54282 12.5961 3.52627 12.6294C3.50971 12.6627 3.4869 12.6922 3.45915 12.7164C3.4314 12.7406 3.39927 12.7588 3.36461 12.7701C3.32996 12.7814 3.29347 12.7855 3.25726 12.7822C3.22104 12.7789 3.18583 12.7683 3.15365 12.7508C3.12147 12.7334 3.09297 12.7097 3.0698 12.6808ZM7.57972 5.45412C9.1664 5.80382 10.8553 6.48754 12.4772 7.45068C16.4905 9.83393 19.1085 13.3482 18.7449 15.8964C18.7401 15.9335 18.7281 15.9692 18.7097 16.0015C18.6914 16.0338 18.6669 16.062 18.6379 16.0845C18.6088 16.1071 18.5757 16.1234 18.5405 16.1327C18.5052 16.1419 18.4686 16.1439 18.4326 16.1385C18.3966 16.133 18.362 16.1203 18.3308 16.101C18.2997 16.0817 18.2725 16.0563 18.251 16.0261C18.2295 15.9959 18.214 15.9617 18.2054 15.9253C18.1968 15.889 18.1954 15.8512 18.2011 15.8143C18.524 13.5518 16.0423 10.2206 12.2024 7.9403C10.629 7.00589 8.99367 6.34391 7.4646 6.00692C7.42882 5.99967 7.39479 5.98516 7.36451 5.96425C7.33424 5.94333 7.30831 5.91642 7.28824 5.8851C7.26817 5.85377 7.25437 5.81865 7.24763 5.78178C7.24089 5.74491 7.24136 5.70703 7.249 5.67034C7.25663 5.63366 7.2713 5.59891 7.29212 5.56811C7.31295 5.53731 7.33953 5.51109 7.37031 5.49096C7.4011 5.47084 7.43546 5.45722 7.47142 5.45089C7.50737 5.44457 7.54418 5.44566 7.57972 5.45412Z" fill="#1C1C1F" stroke="#1C1C1F" stroke-width="0.25"/>
<path d="M14.0816 17.663C13.1639 20.2982 11.6629 21.9208 9.975 21.9208C8.74398 21.9208 7.60508 21.0576 6.71693 19.538C6.69771 19.5062 6.68483 19.4708 6.67904 19.4338C6.67326 19.3968 6.67468 19.359 6.68323 19.3225C6.69178 19.2861 6.70728 19.2518 6.72884 19.2216C6.75039 19.1914 6.77757 19.1659 6.80879 19.1466C6.84002 19.1273 6.87466 19.1145 6.91071 19.1091C6.94676 19.1037 6.98349 19.1057 7.01878 19.115C7.05406 19.1244 7.0872 19.1408 7.11625 19.1634C7.1453 19.186 7.16969 19.2143 7.18801 19.2467C7.98619 20.6124 8.96658 21.3553 9.975 21.3553C11.3771 21.3553 12.7159 19.9082 13.564 17.4725C13.5756 17.4368 13.594 17.4039 13.6182 17.3756C13.6423 17.3474 13.6717 17.3244 13.7046 17.3079C13.7375 17.2915 13.7732 17.282 13.8097 17.28C13.8463 17.2779 13.8828 17.2834 13.9172 17.2961C13.9517 17.3088 13.9833 17.3284 14.0103 17.3538C14.0372 17.3792 14.059 17.4099 14.0743 17.444C14.0896 17.4782 14.0981 17.5152 14.0993 17.5528C14.1005 17.5903 14.0946 17.6278 14.0816 17.663ZM5.70068 17.1475C5.22558 15.5863 4.97051 13.7853 4.97051 11.9085C4.97051 7.22543 6.56409 3.18843 8.83384 2.15183C8.90015 2.12327 8.9747 2.12256 9.0415 2.14986C9.10831 2.17716 9.16206 2.23029 9.19123 2.29787C9.22041 2.36545 9.22268 2.4421 9.19756 2.51138C9.17244 2.58066 9.12193 2.63706 9.05686 2.66849C7.03249 3.59315 5.52022 7.42439 5.52022 11.9085C5.52022 13.7293 5.76725 15.4734 6.22514 16.9786C6.23651 17.0142 6.2409 17.0518 6.23803 17.0891C6.23517 17.1265 6.22512 17.1629 6.20846 17.1962C6.1918 17.2295 6.16887 17.2591 6.141 17.2832C6.11314 17.3073 6.08088 17.3255 6.04612 17.3367C6.01136 17.3479 5.97478 17.3519 5.93851 17.3484C5.90224 17.3449 5.86701 17.334 5.83486 17.3164C5.80271 17.2988 5.77428 17.2748 5.75123 17.2458C5.72817 17.2168 5.71106 17.1834 5.70068 17.1475ZM0.524693 16.8706C0.524693 16.1234 1.11357 15.5177 1.84002 15.5177C2.56648 15.5177 3.15535 16.1234 3.15535 16.8706C3.15535 17.6178 2.56648 18.2235 1.84002 18.2235C1.11357 18.2235 0.524693 17.6178 0.524693 16.8706ZM1.0743 16.8706C1.0743 16.974 1.09411 17.0764 1.13259 17.172C1.17107 17.2675 1.22747 17.3544 1.29857 17.4275C1.36968 17.5006 1.45409 17.5587 1.547 17.5982C1.6399 17.6378 1.73947 17.6582 1.84002 17.6582C1.94058 17.6582 2.04015 17.6378 2.13305 17.5982C2.22595 17.5587 2.31037 17.5006 2.38147 17.4275C2.45257 17.3544 2.50898 17.2675 2.54746 17.172C2.58594 17.0764 2.60574 16.974 2.60574 16.8706C2.60574 16.6617 2.52507 16.4614 2.38147 16.3137C2.23787 16.166 2.0431 16.083 1.84002 16.083C1.63694 16.083 1.44217 16.166 1.29857 16.3137C1.15497 16.4614 1.0743 16.6617 1.0743 16.8706ZM18.1289 18.2235C17.4024 18.2235 16.8135 17.6178 16.8135 16.8706C16.8135 16.1234 17.4025 15.5177 18.1289 15.5177C18.8553 15.5177 19.4443 16.1234 19.4443 16.8706C19.4443 17.6178 18.8553 18.2235 18.1289 18.2235ZM18.1289 17.6582C18.332 17.6582 18.5268 17.5752 18.6704 17.4275C18.814 17.2798 18.8947 17.0795 18.8947 16.8706C18.8947 16.6617 18.814 16.4614 18.6704 16.3137C18.5268 16.166 18.332 16.083 18.1289 16.083C17.9259 16.083 17.7311 16.166 17.5875 16.3137C17.4439 16.4614 17.3632 16.6617 17.3632 16.8706C17.3632 17.0795 17.4439 17.2798 17.5875 17.4275C17.7311 17.5752 17.9259 17.6582 18.1289 17.6582Z" fill="#1C1C1F" stroke="#1C1C1F" stroke-width="0.25"/>
<path d="M9.97505 3.53199C9.24859 3.53199 8.65972 2.92629 8.65972 2.17908C8.65972 1.43187 9.24859 0.826172 9.97505 0.826172C10.7015 0.826172 11.2904 1.43187 11.2904 2.17908C11.2904 2.92629 10.7015 3.53199 9.97505 3.53199ZM9.97505 2.96668C10.1781 2.96668 10.3729 2.8837 10.5165 2.736C10.6601 2.58829 10.7408 2.38797 10.7408 2.17908C10.7408 1.9702 10.6601 1.76987 10.5165 1.62217C10.3729 1.47446 10.1781 1.39148 9.97505 1.39148C9.77196 1.39148 9.5772 1.47446 9.4336 1.62217C9.29 1.76987 9.20933 1.9702 9.20933 2.17908C9.20933 2.38797 9.29 2.58829 9.4336 2.736C9.5772 2.8837 9.77196 2.96668 9.97505 2.96668ZM9.77419 12.8654C10.2879 12.9796 10.794 12.6437 10.9052 12.1153C10.9585 11.8616 10.9116 11.5965 10.7748 11.3783C10.6381 11.1601 10.4227 11.0067 10.176 10.9518C9.66226 10.8377 9.15615 11.1735 9.04484 11.7019C8.93385 12.2303 9.26034 12.751 9.77419 12.8654Z" fill="#1C1C1F" stroke="#1C1C1F" stroke-width="0.25"/>
</svg>
