<svg width="120" height="122" viewBox="0 0 120 122" fill="none" xmlns="http://www.w3.org/2000/svg">
<g filter="url(#filter0_d_8308_255165)">
<path d="M11.25 33.7502C11.25 21.3238 21.3236 11.2502 33.75 11.2502H86.25C98.6764 11.2502 108.75 21.3238 108.75 33.7502V86.2502C108.75 98.6767 98.6764 108.75 86.25 108.75H33.75C21.3236 108.75 11.25 98.6767 11.25 86.2502V33.7502Z" fill="#EDF3FC"/>
<path d="M11.25 33.7502C11.25 21.3238 21.3236 11.2502 33.75 11.2502H86.25C98.6764 11.2502 108.75 21.3238 108.75 33.7502V86.2502C108.75 98.6767 98.6764 108.75 86.25 108.75H33.75C21.3236 108.75 11.25 98.6767 11.25 86.2502V33.7502Z" fill="#EDF3FC"/>
</g>
<path fill-rule="evenodd" clip-rule="evenodd" d="M40.3125 11.2502H33.75C21.3236 11.2502 11.25 21.3238 11.25 33.7502V40.3127V41.2502V59.5315V60.469V78.7502V79.6877V86.2502C11.25 98.6767 21.3236 108.75 33.75 108.75H40.3125H41.25H59.5312H60.4688H78.75H79.6875H86.25C98.6764 108.75 108.75 98.6767 108.75 86.2502V79.6877V78.7502V60.469V59.5315V41.2502V40.3127V33.7502C108.75 21.3238 98.6764 11.2502 86.25 11.2502H79.6875H78.75H41.25H40.3125ZM40.3125 13.1252H33.75C28.7791 13.1252 24.2189 14.8838 20.6576 17.8127H40.3125V13.1252ZM19.5011 18.8385C19.532 18.809 19.5629 18.7796 19.594 18.7502L40.3125 18.7502V22.6786C36.6998 24.5883 33.3979 27.0071 30.5022 29.8396L19.5011 18.8385ZM18.75 19.5942C18.7793 19.5632 18.8087 19.5323 18.8382 19.5014L29.8393 30.5025C27.0068 33.3982 24.588 36.7001 22.6784 40.3127H18.75V19.5942ZM17.8125 20.6578V40.3127H13.125V33.7502C13.125 28.7793 14.8836 24.2191 17.8125 20.6578ZM13.125 41.2502V59.5315H17.8125V41.2502H13.125ZM13.125 60.469V78.7502H17.8125V60.469H13.125ZM13.125 79.6877V86.2502C13.125 91.2212 14.8836 95.7814 17.8125 99.3427V79.6877H13.125ZM18.8382 100.499C18.8087 100.468 18.7793 100.437 18.75 100.406V79.6877H22.6784C24.588 83.3004 27.0069 86.6024 29.8393 89.4981L18.8382 100.499ZM19.594 101.25C19.563 101.221 19.532 101.192 19.5012 101.162L30.5023 90.161C33.3979 92.9934 36.6999 95.4122 40.3125 97.3219V101.25H19.594ZM20.6576 102.188H40.3125V106.875H33.75C28.7791 106.875 24.2189 105.117 20.6576 102.188ZM41.25 106.875H59.5312V102.188H41.25V106.875ZM60.4688 106.875H78.75V102.188H60.4688V106.875ZM79.6875 106.875H86.25C91.2209 106.875 95.7811 105.117 99.3424 102.188H79.6875V106.875ZM100.499 101.162C100.468 101.192 100.437 101.221 100.406 101.25H79.6875V97.3219C83.3001 95.4122 86.6021 92.9934 89.4977 90.161L100.499 101.162ZM101.25 100.406C101.221 100.437 101.191 100.468 101.162 100.499L90.1607 89.4981C92.9931 86.6024 95.412 83.3004 97.3216 79.6877H101.25V100.406ZM102.188 99.3427V79.6877H106.875V86.2502C106.875 91.2212 105.116 95.7814 102.188 99.3427ZM106.875 78.7502V60.469H102.188V78.7502H106.875ZM106.875 59.5315V41.2502H102.188V59.5315H106.875ZM106.875 40.3127V33.7502C106.875 28.7793 105.116 24.2191 102.188 20.6578V40.3127H106.875ZM101.162 19.5014C101.191 19.5323 101.221 19.5632 101.25 19.5942V40.3127H97.3216C95.412 36.7001 92.9932 33.3982 90.1607 30.5025L101.162 19.5014ZM100.406 18.7502C100.437 18.7796 100.468 18.809 100.499 18.8385L89.4978 29.8396C86.6021 27.0071 83.3002 24.5883 79.6875 22.6786V18.7502L100.406 18.7502ZM99.3424 17.8127H79.6875V13.1252H86.25C91.2209 13.1252 95.7811 14.8838 99.3424 17.8127ZM78.75 13.1252L60.4688 13.1252V17.8127H78.75V13.1252ZM59.5312 13.1252V17.8127H41.25V13.1252L59.5312 13.1252ZM23.7424 79.6877C25.57 83.0464 27.8507 86.1228 30.5024 88.835L39.6497 79.6877H23.7424ZM31.1653 89.498C33.8775 92.1495 36.9539 94.4301 40.3125 96.2577V80.3507L31.1653 89.498ZM41.25 101.25V97.8025C44.3419 99.339 47.649 100.507 51.114 101.25H41.25ZM41.25 96.7522C46.7452 99.5613 52.9534 101.174 59.5312 101.247V87.1838C52.4472 87.064 46.0229 84.2348 41.25 79.6878V96.7522ZM40.3124 78.7502H23.2478C20.4387 73.2551 18.8258 67.0469 18.7525 60.469H32.8165C32.9362 67.553 35.7654 73.9773 40.3124 78.7502ZM40.3125 77.3637C36.3242 72.845 33.8674 66.9427 33.754 60.469H40.3125V77.3637ZM42.6366 79.6877H59.5312V86.2463C53.0575 86.1329 47.1552 83.676 42.6366 79.6877ZM60.4688 87.1838V101.247C67.0466 101.174 73.2549 99.5612 78.75 96.7521V79.6877C73.9771 84.2348 67.5528 87.064 60.4688 87.1838ZM77.3633 79.6877C72.8447 83.676 66.9425 86.1329 60.4688 86.2463V79.6877H77.3633ZM79.6875 78.7502H96.7519C99.561 73.2551 101.174 67.0469 101.247 60.469H87.1835C87.0638 67.553 84.2345 73.9773 79.6875 78.7502ZM86.2458 60.469C86.1325 66.9427 83.6757 72.8449 79.6875 77.3635V60.469H86.2458ZM87.1835 59.5315H101.247C101.174 52.9536 99.5612 46.7454 96.7522 41.2502H79.6876C84.2346 46.0232 87.0638 52.4475 87.1835 59.5315ZM79.6875 42.6372C83.6756 47.1558 86.1325 53.0579 86.2458 59.5315H79.6875V42.6372ZM78.75 40.3127V23.2479C73.2549 20.4388 67.0466 18.8259 60.4688 18.7526V32.8167C67.5528 32.9365 73.9771 35.7657 78.75 40.3127ZM60.4688 33.7545C66.9423 33.8679 72.8444 36.3246 77.363 40.3127H60.4688V33.7545ZM59.5312 33.7545V40.3127H42.6369C47.1555 36.3246 53.0576 33.8678 59.5312 33.7545ZM59.5312 32.8167C52.4472 32.9365 46.0229 35.7656 41.25 40.3127V23.2477C46.7452 20.4387 52.9534 18.8258 59.5312 18.7526V32.8167ZM40.3124 41.2502H23.2476C20.4385 46.7454 18.8257 52.9536 18.7525 59.5315H32.8165C32.9362 52.4475 35.7654 46.0232 40.3124 41.2502ZM40.3125 42.6371C36.3243 47.1557 33.8674 53.0578 33.754 59.5315H40.3125V42.6371ZM78.75 101.25H68.886C72.351 100.507 75.6581 99.339 78.75 97.8025V101.25ZM79.6875 96.2575C83.0461 94.43 86.1224 92.1494 88.8346 89.4978L79.6875 80.3507V96.2575ZM89.4975 88.8349C92.1491 86.1227 94.4297 83.0463 96.2573 79.6877H80.3503L89.4975 88.8349ZM101.25 78.7502H97.8023C99.3388 75.6584 100.507 72.3513 101.25 68.8863V78.7502ZM101.25 41.2502V51.1142C100.507 47.6492 99.3388 44.3421 97.8023 41.2502H101.25ZM96.2576 40.3127C94.4301 36.9541 92.1494 33.8776 89.4978 31.1654L80.3505 40.3127H96.2576ZM88.8349 30.5025C86.1227 27.8508 83.0462 25.5701 79.6875 23.7425V39.6499L88.8349 30.5025ZM78.75 18.7502V22.198C75.6581 20.6615 72.351 19.4931 68.886 18.7502H78.75ZM41.25 18.7502H51.114C47.649 19.4931 44.3419 20.6615 41.25 22.198V18.7502ZM40.3125 23.7423C36.9538 25.5699 33.8772 27.8506 31.1649 30.5023L40.3125 39.6499V23.7423ZM39.6495 40.3127L30.502 31.1653C27.8504 33.8775 25.5697 36.954 23.7421 40.3127H39.6495ZM18.75 41.2502H22.1977C20.6612 44.3421 19.4929 47.6492 18.75 51.1142V41.2502ZM18.75 78.7502V68.8863C19.4929 72.3513 20.6612 75.6584 22.1977 78.7502H18.75ZM41.913 78.7502L46.4142 74.249C48.5391 76.2756 51.1166 77.8317 53.9797 78.7502H41.913ZM41.25 78.0874L45.7513 73.5861C43.7247 71.4612 42.1686 68.8836 41.25 66.0205V78.0874ZM41.2559 60.469C41.3742 65.2928 43.3144 69.6648 46.4145 72.9229L58.8684 60.469H41.2559ZM59.5312 61.132L47.0774 73.5858C50.3355 76.6859 54.7074 78.6261 59.5312 78.7445V61.132ZM60.4688 61.132V78.7445C65.2926 78.6262 69.6646 76.686 72.9227 73.5859L60.4688 61.132ZM73.5858 74.249C71.4609 76.2756 68.8834 77.8317 66.0203 78.7502H78.087L73.5858 74.249ZM78.75 66.0205C77.8315 68.8836 76.2753 71.4612 74.2487 73.5861L78.75 78.0874V66.0205ZM73.5856 72.923C76.6858 69.6649 78.626 65.2929 78.7444 60.469H61.1316L73.5856 72.923ZM61.1317 59.5315H78.7444C78.626 54.7076 76.6858 50.3356 73.5857 47.0775L61.1317 59.5315ZM74.2487 46.4145C76.2753 48.5394 77.8315 51.1169 78.75 53.98V41.9132L74.2487 46.4145ZM60.4688 58.8687L72.9228 46.4146C69.6646 43.3145 65.2926 41.3743 60.4688 41.256V58.8687ZM66.0203 41.2502C68.8834 42.1688 71.461 43.725 73.5858 45.7516L78.0872 41.2502H66.0203ZM41.9128 41.2502H53.9797C51.1166 42.1688 48.539 43.725 46.4142 45.7516L41.9128 41.2502ZM47.0774 46.4148C50.3354 43.3147 54.7074 41.3744 59.5312 41.256V58.8687L47.0774 46.4148ZM58.8683 59.5315L46.4145 47.0777C43.3144 50.3358 41.3743 54.7077 41.2559 59.5315H58.8683ZM41.25 53.98C42.1685 51.1169 43.7247 48.5394 45.7513 46.4145L41.25 41.9132V53.98Z" fill="#89A0FD"/>
<defs>
<filter id="filter0_d_8308_255165" x="4.02295" y="9.44348" width="111.954" height="111.954" filterUnits="userSpaceOnUse" color-interpolation-filters="sRGB">
<feFlood flood-opacity="0" result="BackgroundImageFix"/>
<feColorMatrix in="SourceAlpha" type="matrix" values="0 0 0 0 0 0 0 0 0 0 0 0 0 0 0 0 0 0 127 0" result="hardAlpha"/>
<feOffset dy="5.42029"/>
<feGaussianBlur stdDeviation="3.61353"/>
<feColorMatrix type="matrix" values="0 0 0 0 0 0 0 0 0 0 0 0 0 0 0 0 0 0 0.0783 0"/>
<feBlend mode="normal" in2="BackgroundImageFix" result="effect1_dropShadow_8308_255165"/>
<feBlend mode="normal" in="SourceGraphic" in2="effect1_dropShadow_8308_255165" result="shape"/>
</filter>
</defs>
</svg>
