<svg width="12" height="14" viewBox="0 0 12 14" fill="none" xmlns="http://www.w3.org/2000/svg"><path d="M11.3562 4.14376L7.85625 0.643758C7.761 0.550897 7.63302 0.499258 7.5 0.500008H1.5C1.23478 0.500008 0.98043 0.605365 0.792893 0.792901C0.605357 0.980438 0.5 1.23479 0.5 1.50001V12.5C0.5 12.7652 0.605357 13.0196 0.792893 13.2071C0.98043 13.3947 1.23478 13.5 1.5 13.5H10.5C10.7652 13.5 11.0196 13.3947 11.2071 13.2071C11.3946 13.0196 11.5 12.7652 11.5 12.5V4.50001C11.5007 4.36698 11.4491 4.23901 11.3562 4.14376ZM4.85625 9.64376C4.95014 9.73855 5.00281 9.86658 5.00281 10C5.00281 10.1334 4.95014 10.2615 4.85625 10.3563C4.76068 10.4487 4.63294 10.5003 4.5 10.5003C4.36706 10.5003 4.23932 10.4487 4.14375 10.3563L2.64375 8.85626C2.54986 8.76146 2.49719 8.63343 2.49719 8.50001C2.49719 8.36658 2.54986 8.23855 2.64375 8.14376L4.14375 6.64376C4.2409 6.56403 4.36423 6.52328 4.48976 6.52945C4.61528 6.53561 4.73403 6.58825 4.82289 6.67711C4.91176 6.76598 4.9644 6.88473 4.97056 7.01025C4.97673 7.13578 4.93598 7.25911 4.85625 7.35626L3.70625 8.50001L4.85625 9.64376ZM9.35625 8.85626L7.85625 10.3563C7.76068 10.4487 7.63294 10.5003 7.5 10.5003C7.36706 10.5003 7.23932 10.4487 7.14375 10.3563C7.04986 10.2615 6.99719 10.1334 6.99719 10C6.99719 9.86658 7.04986 9.73855 7.14375 9.64376L8.29375 8.50001L7.14375 7.35626C7.06402 7.25911 7.02327 7.13578 7.02944 7.01025C7.0356 6.88473 7.08824 6.76598 7.1771 6.67711C7.26597 6.58825 7.38472 6.53561 7.51024 6.52945C7.63577 6.52328 7.7591 6.56403 7.85625 6.64376L9.35625 8.14376C9.45014 8.23855 9.50281 8.36658 9.50281 8.50001C9.50281 8.63343 9.45014 8.76146 9.35625 8.85626ZM7.5 4.50001V1.75001L10.25 4.50001H7.5Z" fill="#6D6E73"/></svg>