<svg width="134" height="33" viewBox="0 0 134 33" fill="none" xmlns="http://www.w3.org/2000/svg">
<g clip-path="url(#clip0_8152_232277)">
<path fill-rule="evenodd" clip-rule="evenodd" d="M0.375183 24.008L5.15161 20.3495C7.68803 23.661 10.3816 25.187 13.3831 25.187C16.368 25.187 18.9876 23.6786 21.4103 20.3933L26.2526 23.9642C22.7594 28.701 18.4134 31.2035 13.3831 31.2035C8.3695 31.2035 3.98325 28.7186 0.375183 24.008Z" fill="url(#paint0_linear_8152_232277)"/>
<path fill-rule="evenodd" clip-rule="evenodd" d="M13.3676 8.10786L4.86638 15.4333L0.938965 10.8754L13.3845 0.151245L25.7334 10.8838L21.7866 15.4249L13.3676 8.10786Z" fill="url(#paint1_linear_8152_232277)"/>
<path d="M58.8567 6.33563H54.0435V26.3908H58.8567V6.33563Z" fill="#1C1C1F"/>
<path fill-rule="evenodd" clip-rule="evenodd" d="M44.316 26.4782C41.4786 26.4782 39.1141 25.5587 37.1962 23.7196C35.2784 21.8543 34.3325 19.4635 34.3325 16.5473C34.3325 13.6048 35.3046 11.1877 37.2225 9.29618C39.1666 7.37828 41.5311 6.4325 44.3423 6.4325C47.8101 6.4325 50.8841 7.92999 52.6704 10.2682L49.5441 13.5523C48.0465 11.9497 46.4178 11.1352 44.6575 11.1352C43.16 11.1352 41.9252 11.6344 40.9006 12.659C39.9022 13.6836 39.4031 14.971 39.4031 16.521C39.4031 18.0185 39.9022 19.2796 40.9006 20.3042C41.9252 21.3026 43.16 21.8017 44.6313 21.8017C46.5491 21.8017 48.2305 20.961 49.6229 19.3059L52.8809 22.4323C51.9877 23.6145 50.7788 24.5866 49.2813 25.3485C47.7841 26.1104 46.1288 26.4782 44.316 26.4782Z" fill="#1C1C1F"/>
<path fill-rule="evenodd" clip-rule="evenodd" d="M66.0761 7.9401C66.0761 9.38003 64.9093 10.5473 63.4693 10.5473C62.0292 10.5473 60.8619 9.38003 60.8619 7.9401C60.8619 6.50021 62.0292 5.33295 63.4693 5.33295C64.9093 5.33295 66.0761 6.50021 66.0761 7.9401ZM65.8756 11.7506H61.0625V26.3908H65.8756V11.7506Z" fill="#1C1C1F"/>
<path fill-rule="evenodd" clip-rule="evenodd" d="M75.1797 26.5047C72.8942 26.5047 71.055 25.7953 69.6102 24.3766C68.1914 22.9579 67.4818 21.1451 67.4818 18.912C67.4818 16.6789 68.1914 14.866 69.6362 13.4474C71.0814 12.0287 72.9466 11.3193 75.2585 11.3193C78.2801 11.3193 80.9332 12.7906 82.168 15.5492L78.4637 17.4933C77.7281 16.2585 76.7037 15.628 75.3637 15.628C74.3918 15.628 73.6033 15.9432 72.973 16.5737C72.3686 17.2043 72.0534 17.9924 72.0534 18.912C72.0534 20.8298 73.4458 22.2485 75.3114 22.2485C76.6509 22.2485 77.8857 21.5129 78.4113 20.3832L82.1156 22.5901C80.8544 25.0072 78.2537 26.5047 75.1797 26.5047Z" fill="#1C1C1F"/>
<path fill-rule="evenodd" clip-rule="evenodd" d="M88.1376 6.33563H83.3245V26.3907H88.1376V21.2852L88.7015 20.7593L93.1013 26.3907H98.7005L91.9406 17.7387L98.3622 11.7505H92.4808L88.1376 15.8008V6.33563Z" fill="#1C1C1F"/>
<path fill-rule="evenodd" clip-rule="evenodd" d="M99.5687 18.8123V6.33563H104.583V18.5329C104.583 20.7135 105.853 21.7644 107.691 21.7644C109.502 21.7644 110.8 20.661 110.8 18.5329V6.33563H115.813V18.8123C115.813 24.5396 111.792 26.694 107.691 26.694C103.617 26.694 99.5687 24.5396 99.5687 18.8123Z" fill="#1C1C1F"/>
<path fill-rule="evenodd" clip-rule="evenodd" d="M126.643 26.7915C130.52 26.7915 133.663 23.3795 133.663 19.1705C133.663 14.9616 130.52 11.5496 126.643 11.5496C125.063 11.5496 123.605 12.1165 122.432 13.0732V11.7502H117.819V32.407H122.432V25.268C123.605 26.2246 125.063 26.7915 126.643 26.7915ZM122.432 19.1784V19.1627C122.436 17.2834 123.916 15.7612 125.741 15.7612C127.569 15.7612 129.05 17.2876 129.05 19.1705C129.05 21.0535 127.569 22.5799 125.741 22.5799C123.916 22.5799 122.436 21.0577 122.432 19.1784Z" fill="#1C1C1F"/>
</g>
<defs>
<linearGradient id="paint0_linear_8152_232277" x1="0.375183" y1="33.1579" x2="26.2526" y2="33.1579" gradientUnits="userSpaceOnUse">
<stop stop-color="#8930FD"/>
<stop offset="1" stop-color="#49CCF9"/>
</linearGradient>
<linearGradient id="paint1_linear_8152_232277" x1="0.938965" y1="18.1849" x2="25.7334" y2="18.1849" gradientUnits="userSpaceOnUse">
<stop stop-color="#FF02F0"/>
<stop offset="1" stop-color="#FFC800"/>
</linearGradient>
<clipPath id="clip0_8152_232277">
<rect width="134" height="32.5563" fill="white"/>
</clipPath>
</defs>
</svg>
