<svg class="absolute z-0 opacity-40" width="1501" height="501" viewBox="0 0 1501 501" fill="none" xmlns="http://www.w3.org/2000/svg"><g clip-path="url(#clip0_8229_283381)"><line x1="0.25" y1="1" x2="0.249978" y2="501" stroke="white" stroke-opacity="0.26" stroke-width="0.5"/><line y1="0.75" x2="1500" y2="0.75" stroke="white" stroke-opacity="0.25" stroke-width="0.5"/><line y1="20.75" x2="1500" y2="20.75" stroke="white" stroke-opacity="0.15" stroke-width="0.5" stroke-dasharray="2 2"/><line y1="40.75" x2="1500" y2="40.75" stroke="white" stroke-opacity="0.15" stroke-width="0.5" stroke-dasharray="2 2"/><line y1="60.75" x2="1500" y2="60.75" stroke="white" stroke-opacity="0.15" stroke-width="0.5" stroke-dasharray="2 2"/><line y1="80.75" x2="1500" y2="80.75" stroke="white" stroke-opacity="0.15" stroke-width="0.5" stroke-dasharray="2 2"/><line y1="100.75" x2="1500" y2="100.75" stroke="white" stroke-opacity="0.26" stroke-width="0.5"/><line y1="120.75" x2="1500" y2="120.75" stroke="white" stroke-opacity="0.15" stroke-width="0.5" stroke-dasharray="2 2"/><line y1="140.75" x2="1500" y2="140.75" stroke="white" stroke-opacity="0.15" stroke-width="0.5" stroke-dasharray="2 2"/><line y1="160.75" x2="1500" y2="160.75" stroke="white" stroke-opacity="0.15" stroke-width="0.5" stroke-dasharray="2 2"/><line y1="180.75" x2="1500" y2="180.75" stroke="white" stroke-opacity="0.15" stroke-width="0.5" stroke-dasharray="2 2"/><line y1="200.75" x2="1500" y2="200.75" stroke="white" stroke-opacity="0.26" stroke-width="0.5"/><line y1="220.75" x2="1500" y2="220.75" stroke="white" stroke-opacity="0.15" stroke-width="0.5" stroke-dasharray="2 2"/><line y1="240.75" x2="1500" y2="240.75" stroke="white" stroke-opacity="0.15" stroke-width="0.5" stroke-dasharray="2 2"/><line y1="260.75" x2="1500" y2="260.75" stroke="white" stroke-opacity="0.15" stroke-width="0.5" stroke-dasharray="2 2"/><line y1="280.75" x2="1500" y2="280.75" stroke="white" stroke-opacity="0.15" stroke-width="0.5" stroke-dasharray="2 2"/><line y1="300.75" x2="1500" y2="300.75" stroke="white" stroke-opacity="0.26" stroke-width="0.5"/><line y1="320.75" x2="1500" y2="320.75" stroke="white" stroke-opacity="0.15" stroke-width="0.5" stroke-dasharray="2 2"/><line y1="340.75" x2="1500" y2="340.75" stroke="white" stroke-opacity="0.15" stroke-width="0.5" stroke-dasharray="2 2"/><line y1="360.75" x2="1500" y2="360.75" stroke="white" stroke-opacity="0.15" stroke-width="0.5" stroke-dasharray="2 2"/><line y1="380.75" x2="1500" y2="380.75" stroke="white" stroke-opacity="0.15" stroke-width="0.5" stroke-dasharray="2 2"/><line y1="400.75" x2="1500" y2="400.75" stroke="white" stroke-opacity="0.26" stroke-width="0.5"/><line y1="420.75" x2="1500" y2="420.75" stroke="white" stroke-opacity="0.15" stroke-width="0.5" stroke-dasharray="2 2"/><line y1="440.75" x2="1500" y2="440.75" stroke="white" stroke-opacity="0.15" stroke-width="0.5" stroke-dasharray="2 2"/><line y1="460.75" x2="1500" y2="460.75" stroke="white" stroke-opacity="0.15" stroke-width="0.5" stroke-dasharray="2 2"/><line y1="480.75" x2="1500" y2="480.75" stroke="white" stroke-opacity="0.15" stroke-width="0.5" stroke-dasharray="2 2"/><line y1="500.75" x2="1500" y2="500.75" stroke="white" stroke-opacity="0.26" stroke-width="0.5"/><line x1="20.25" y1="1" x2="20.25" y2="501" stroke="white" stroke-opacity="0.15" stroke-width="0.5" stroke-dasharray="2 2"/><line x1="40.25" y1="1" x2="40.25" y2="501" stroke="white" stroke-opacity="0.15" stroke-width="0.5" stroke-dasharray="2 2"/><line x1="60.25" y1="1" x2="60.25" y2="501" stroke="white" stroke-opacity="0.15" stroke-width="0.5" stroke-dasharray="2 2"/><line x1="80.25" y1="1" x2="80.25" y2="501" stroke="white" stroke-opacity="0.15" stroke-width="0.5" stroke-dasharray="2 2"/><line x1="100.25" y1="1" x2="100.25" y2="501" stroke="white" stroke-opacity="0.26" stroke-width="0.5"/><line x1="120.25" y1="1" x2="120.25" y2="501" stroke="white" stroke-opacity="0.15" stroke-width="0.5" stroke-dasharray="2 2"/><line x1="140.25" y1="1" x2="140.25" y2="501" stroke="white" stroke-opacity="0.15" stroke-width="0.5" stroke-dasharray="2 2"/><line x1="160.25" y1="1" x2="160.25" y2="501" stroke="white" stroke-opacity="0.15" stroke-width="0.5" stroke-dasharray="2 2"/><line x1="180.25" y1="1" x2="180.25" y2="501" stroke="white" stroke-opacity="0.15" stroke-width="0.5" stroke-dasharray="2 2"/><line x1="200.25" y1="1" x2="200.25" y2="501" stroke="white" stroke-opacity="0.26" stroke-width="0.5"/><line x1="220.25" y1="1" x2="220.25" y2="501" stroke="white" stroke-opacity="0.15" stroke-width="0.5" stroke-dasharray="2 2"/><line x1="240.25" y1="1" x2="240.25" y2="501" stroke="white" stroke-opacity="0.15" stroke-width="0.5" stroke-dasharray="2 2"/><line x1="260.25" y1="1" x2="260.25" y2="501" stroke="white" stroke-opacity="0.15" stroke-width="0.5" stroke-dasharray="2 2"/><line x1="280.25" y1="1" x2="280.25" y2="501" stroke="white" stroke-opacity="0.15" stroke-width="0.5" stroke-dasharray="2 2"/><line x1="300.25" y1="1" x2="300.25" y2="501" stroke="white" stroke-opacity="0.26" stroke-width="0.5"/><line x1="320.25" y1="1" x2="320.25" y2="501" stroke="white" stroke-opacity="0.15" stroke-width="0.5" stroke-dasharray="2 2"/><line x1="340.25" y1="1" x2="340.25" y2="501" stroke="white" stroke-opacity="0.15" stroke-width="0.5" stroke-dasharray="2 2"/><line x1="360.25" y1="1" x2="360.25" y2="501" stroke="white" stroke-opacity="0.15" stroke-width="0.5" stroke-dasharray="2 2"/><line x1="380.25" y1="1" x2="380.25" y2="501" stroke="white" stroke-opacity="0.15" stroke-width="0.5" stroke-dasharray="2 2"/><line x1="400.25" y1="1" x2="400.25" y2="501" stroke="white" stroke-opacity="0.26" stroke-width="0.5"/><line x1="420.25" y1="1" x2="420.25" y2="501" stroke="white" stroke-opacity="0.15" stroke-width="0.5" stroke-dasharray="2 2"/><line x1="440.25" y1="1" x2="440.25" y2="501" stroke="white" stroke-opacity="0.15" stroke-width="0.5" stroke-dasharray="2 2"/><line x1="460.25" y1="1" x2="460.25" y2="501" stroke="white" stroke-opacity="0.15" stroke-width="0.5" stroke-dasharray="2 2"/><line x1="480.25" y1="1" x2="480.25" y2="501" stroke="white" stroke-opacity="0.15" stroke-width="0.5" stroke-dasharray="2 2"/><line x1="500.25" y1="1" x2="500.25" y2="501" stroke="white" stroke-opacity="0.26" stroke-width="0.5"/><line x1="520.25" y1="1" x2="520.25" y2="501" stroke="white" stroke-opacity="0.15" stroke-width="0.5" stroke-dasharray="2 2"/><line x1="620.25" y1="1" x2="620.25" y2="501" stroke="white" stroke-opacity="0.15" stroke-width="0.5" stroke-dasharray="2 2"/><line x1="720.25" y1="1" x2="720.25" y2="501" stroke="white" stroke-opacity="0.15" stroke-width="0.5" stroke-dasharray="2 2"/><line x1="820.25" y1="1" x2="820.25" y2="501" stroke="white" stroke-opacity="0.15" stroke-width="0.5" stroke-dasharray="2 2"/><line x1="920.25" y1="1" x2="920.25" y2="501" stroke="white" stroke-opacity="0.15" stroke-width="0.5" stroke-dasharray="2 2"/><line x1="1020.25" y1="1" x2="1020.25" y2="501" stroke="white" stroke-opacity="0.15" stroke-width="0.5" stroke-dasharray="2 2"/><line x1="1120.25" y1="1" x2="1120.25" y2="501" stroke="white" stroke-opacity="0.15" stroke-width="0.5" stroke-dasharray="2 2"/><line x1="1220.25" y1="1" x2="1220.25" y2="501" stroke="white" stroke-opacity="0.15" stroke-width="0.5" stroke-dasharray="2 2"/><line x1="1320.25" y1="1" x2="1320.25" y2="501" stroke="white" stroke-opacity="0.15" stroke-width="0.5" stroke-dasharray="2 2"/><line x1="1420.25" y1="1" x2="1420.25" y2="501" stroke="white" stroke-opacity="0.15" stroke-width="0.5" stroke-dasharray="2 2"/><line x1="540.25" y1="1" x2="540.25" y2="501" stroke="white" stroke-opacity="0.15" stroke-width="0.5" stroke-dasharray="2 2"/><line x1="640.25" y1="1" x2="640.25" y2="501" stroke="white" stroke-opacity="0.15" stroke-width="0.5" stroke-dasharray="2 2"/><line x1="740.25" y1="1" x2="740.25" y2="501" stroke="white" stroke-opacity="0.15" stroke-width="0.5" stroke-dasharray="2 2"/><line x1="840.25" y1="1" x2="840.25" y2="501" stroke="white" stroke-opacity="0.15" stroke-width="0.5" stroke-dasharray="2 2"/><line x1="940.25" y1="1" x2="940.25" y2="501" stroke="white" stroke-opacity="0.15" stroke-width="0.5" stroke-dasharray="2 2"/><line x1="1040.25" y1="1" x2="1040.25" y2="501" stroke="white" stroke-opacity="0.15" stroke-width="0.5" stroke-dasharray="2 2"/><line x1="1140.25" y1="1" x2="1140.25" y2="501" stroke="white" stroke-opacity="0.15" stroke-width="0.5" stroke-dasharray="2 2"/><line x1="1240.25" y1="1" x2="1240.25" y2="501" stroke="white" stroke-opacity="0.15" stroke-width="0.5" stroke-dasharray="2 2"/><line x1="1340.25" y1="1" x2="1340.25" y2="501" stroke="white" stroke-opacity="0.15" stroke-width="0.5" stroke-dasharray="2 2"/><line x1="1440.25" y1="1" x2="1440.25" y2="501" stroke="white" stroke-opacity="0.15" stroke-width="0.5" stroke-dasharray="2 2"/><line x1="560.25" y1="1" x2="560.25" y2="501" stroke="white" stroke-opacity="0.15" stroke-width="0.5" stroke-dasharray="2 2"/><line x1="660.25" y1="1" x2="660.25" y2="501" stroke="white" stroke-opacity="0.15" stroke-width="0.5" stroke-dasharray="2 2"/><line x1="760.25" y1="1" x2="760.25" y2="501" stroke="white" stroke-opacity="0.15" stroke-width="0.5" stroke-dasharray="2 2"/><line x1="860.25" y1="1" x2="860.25" y2="501" stroke="white" stroke-opacity="0.15" stroke-width="0.5" stroke-dasharray="2 2"/><line x1="960.25" y1="1" x2="960.25" y2="501" stroke="white" stroke-opacity="0.15" stroke-width="0.5" stroke-dasharray="2 2"/><line x1="1060.25" y1="1" x2="1060.25" y2="501" stroke="white" stroke-opacity="0.15" stroke-width="0.5" stroke-dasharray="2 2"/><line x1="1160.25" y1="1" x2="1160.25" y2="501" stroke="white" stroke-opacity="0.15" stroke-width="0.5" stroke-dasharray="2 2"/><line x1="1260.25" y1="1" x2="1260.25" y2="501" stroke="white" stroke-opacity="0.15" stroke-width="0.5" stroke-dasharray="2 2"/><line x1="1360.25" y1="1" x2="1360.25" y2="501" stroke="white" stroke-opacity="0.15" stroke-width="0.5" stroke-dasharray="2 2"/><line x1="1460.25" y1="1" x2="1460.25" y2="501" stroke="white" stroke-opacity="0.15" stroke-width="0.5" stroke-dasharray="2 2"/><line x1="580.25" y1="1" x2="580.25" y2="501" stroke="white" stroke-opacity="0.15" stroke-width="0.5" stroke-dasharray="2 2"/><line x1="680.25" y1="1" x2="680.25" y2="501" stroke="white" stroke-opacity="0.15" stroke-width="0.5" stroke-dasharray="2 2"/><line x1="780.25" y1="1" x2="780.25" y2="501" stroke="white" stroke-opacity="0.15" stroke-width="0.5" stroke-dasharray="2 2"/><line x1="880.25" y1="1" x2="880.25" y2="501" stroke="white" stroke-opacity="0.15" stroke-width="0.5" stroke-dasharray="2 2"/><line x1="980.25" y1="1" x2="980.25" y2="501" stroke="white" stroke-opacity="0.15" stroke-width="0.5" stroke-dasharray="2 2"/><line x1="1080.25" y1="1" x2="1080.25" y2="501" stroke="white" stroke-opacity="0.15" stroke-width="0.5" stroke-dasharray="2 2"/><line x1="1180.25" y1="1" x2="1180.25" y2="501" stroke="white" stroke-opacity="0.15" stroke-width="0.5" stroke-dasharray="2 2"/><line x1="1280.25" y1="1" x2="1280.25" y2="501" stroke="white" stroke-opacity="0.15" stroke-width="0.5" stroke-dasharray="2 2"/><line x1="1380.25" y1="1" x2="1380.25" y2="501" stroke="white" stroke-opacity="0.15" stroke-width="0.5" stroke-dasharray="2 2"/><line x1="1480.25" y1="1" x2="1480.25" y2="501" stroke="white" stroke-opacity="0.15" stroke-width="0.5" stroke-dasharray="2 2"/><line x1="600.25" y1="1" x2="600.25" y2="501" stroke="white" stroke-opacity="0.26" stroke-width="0.5"/><line x1="700.25" y1="1" x2="700.25" y2="501" stroke="white" stroke-opacity="0.26" stroke-width="0.5"/><line x1="800.25" y1="1" x2="800.25" y2="501" stroke="white" stroke-opacity="0.26" stroke-width="0.5"/><line x1="900.25" y1="1" x2="900.25" y2="501" stroke="white" stroke-opacity="0.26" stroke-width="0.5"/><line x1="1000.25" y1="1" x2="1000.25" y2="501" stroke="white" stroke-opacity="0.26" stroke-width="0.5"/><line x1="1100.25" y1="1" x2="1100.25" y2="501" stroke="white" stroke-opacity="0.26" stroke-width="0.5"/><line x1="1200.25" y1="1" x2="1200.25" y2="501" stroke="white" stroke-opacity="0.26" stroke-width="0.5"/><line x1="1300.25" y1="1" x2="1300.25" y2="501" stroke="white" stroke-opacity="0.26" stroke-width="0.5"/><line x1="1400.25" y1="1" x2="1400.25" y2="501" stroke="white" stroke-opacity="0.26" stroke-width="0.5"/><line x1="1500.25" y1="1" x2="1500.25" y2="501" stroke="white" stroke-opacity="0.26" stroke-width="0.5"/><circle cx="750" cy="251" r="349.75" stroke="white" stroke-opacity="0.25" stroke-width="0.5"/><circle cx="751" cy="251" r="549.75" stroke="white" stroke-opacity="0.25" stroke-width="0.5"/></g><defs><clipPath id="clip0_8229_283381"><rect width="1501" height="501" fill="white"/></clipPath></defs></svg>